<mxfile host="www.draw.io" modified="2020-02-01T21:34:14.589Z" agent="Mozilla/5.0 (Macintosh; Intel Mac OS X 10_14_4) AppleWebKit/605.1.15 (KHTML, like Gecko) Version/12.1 Safari/605.1.15" etag="S5x5BbCZO1XqHkhp-AsH" version="12.6.2" type="github">
  <diagram id="0vHo6WEblm4w552MR0Qe" name="Page-1">
    <mxGraphModel dx="946" dy="614" grid="1" gridSize="10" guides="1" tooltips="1" connect="1" arrows="1" fold="1" page="1" pageScale="1" pageWidth="850" pageHeight="1100" math="0" shadow="0">
      <root>
        <mxCell id="0"/>
        <mxCell id="1" parent="0"/>
        <mxCell id="XseoDJrQLBkZdQjmpKM9-1" value="Low Power Mode&lt;br&gt;priority =&amp;gt; low" style="ellipse;whiteSpace=wrap;html=1;aspect=fixed;" vertex="1" parent="1">
          <mxGeometry x="120" y="130" width="100" height="100" as="geometry"/>
        </mxCell>
        <mxCell id="XseoDJrQLBkZdQjmpKM9-3" value="" style="endArrow=classic;html=1;strokeColor=none;curved=1;" edge="1" parent="1">
          <mxGeometry width="50" height="50" relative="1" as="geometry">
            <mxPoint x="110" y="320" as="sourcePoint"/>
            <mxPoint x="380" y="310" as="targetPoint"/>
            <Array as="points">
              <mxPoint x="240" y="260"/>
            </Array>
          </mxGeometry>
        </mxCell>
        <mxCell id="XseoDJrQLBkZdQjmpKM9-8" value="" style="group" vertex="1" connectable="0" parent="1">
          <mxGeometry x="330" y="120" height="120" as="geometry"/>
        </mxCell>
        <mxCell id="XseoDJrQLBkZdQjmpKM9-4" value="" style="endArrow=classic;html=1;curved=1;" edge="1" parent="XseoDJrQLBkZdQjmpKM9-8">
          <mxGeometry width="50" height="50" relative="1" as="geometry">
            <mxPoint x="-110" y="40" as="sourcePoint"/>
            <mxPoint x="90" y="50" as="targetPoint"/>
            <Array as="points">
              <mxPoint/>
            </Array>
          </mxGeometry>
        </mxCell>
        <mxCell id="XseoDJrQLBkZdQjmpKM9-5" value="" style="endArrow=classic;html=1;curved=1;" edge="1" parent="XseoDJrQLBkZdQjmpKM9-8">
          <mxGeometry width="50" height="50" relative="1" as="geometry">
            <mxPoint x="90" y="80" as="sourcePoint"/>
            <mxPoint x="-110" y="80" as="targetPoint"/>
            <Array as="points">
              <mxPoint y="120"/>
            </Array>
          </mxGeometry>
        </mxCell>
        <mxCell id="XseoDJrQLBkZdQjmpKM9-12" value="Motion detected&lt;br&gt;send alert&lt;br&gt;priority =&amp;gt; high&lt;br&gt;" style="ellipse;whiteSpace=wrap;html=1;aspect=fixed;" vertex="1" parent="1">
          <mxGeometry x="420" y="130" width="100" height="100" as="geometry"/>
        </mxCell>
        <mxCell id="XseoDJrQLBkZdQjmpKM9-15" value="1. Motion detected &amp;nbsp;&lt;br&gt;( Since task has high priority , freeRTOS schedule will schedule the task )&lt;br&gt;2. Alert send via TCP of Event. &amp;nbsp;&amp;nbsp;" style="text;html=1;strokeColor=none;fillColor=none;align=center;verticalAlign=middle;whiteSpace=wrap;rounded=0;" vertex="1" parent="1">
          <mxGeometry x="140" y="60" width="350" height="70" as="geometry"/>
        </mxCell>
        <mxCell id="XseoDJrQLBkZdQjmpKM9-16" value="Return &amp;nbsp; to Low power mode after task has finished. The low power mode task is always on the scheduler." style="text;html=1;strokeColor=none;fillColor=none;align=center;verticalAlign=middle;whiteSpace=wrap;rounded=0;" vertex="1" parent="1">
          <mxGeometry x="130" y="210" width="390" height="100" as="geometry"/>
        </mxCell>
      </root>
    </mxGraphModel>
  </diagram>
</mxfile>
